{
	"asset":{
		"generator":"Khronos glTF Blender I/O v3.6.27",
		"version":"2.0"
	},
	"scene":0,
	"scenes":[
		{
			"name":"Scene",
			"nodes":[
				0
			]
		}
	],
	"nodes":[
		{
			"mesh":0,
			"name":"Eiffel Tower",
			"translation":[
				615,
				0,
				-230
			]
		}
	],
	"materials":[
		{
			"doubleSided":true,
			"name":"EiffelTower Bronze Baked",
			"normalTexture":{
				"index":0,
				"texCoord":1
			},
			"pbrMetallicRoughness":{
				"baseColorTexture":{
					"index":1,
					"texCoord":1
				},
				"metallicFactor":0.800000011920929,
				"metallicRoughnessTexture":{
					"index":2,
					"texCoord":1
				}
			}
		}
	],
	"meshes":[
		{
			"name":"Mesh.022",
			"primitives":[
				{
					"attributes":{
						"POSITION":0,
						"NORMAL":1,
						"TEXCOORD_0":2,
						"TEXCOORD_1":3
					},
					"indices":4,
					"material":0
				}
			]
		}
	],
	"textures":[
		{
			"sampler":0,
			"source":0
		},
		{
			"sampler":0,
			"source":1
		},
		{
			"sampler":0,
			"source":2
		}
	],
	"images":[
		{
			"mimeType":"image/jpeg",
			"name":"EiffelTowerBronzeNormal",
			"uri":"textures/EiffelTowerBronzeNormal.jpg"
		},
		{
			"mimeType":"image/jpeg",
			"name":"EiffelTowerBronzeColor",
			"uri":"textures/EiffelTowerBronzeColor.jpg"
		},
		{
			"mimeType":"image/png",
			"name":"EiffelTowerBronzeRoughness",
			"uri":"textures/EiffelTowerBronzeRoughness.png"
		}
	],
	"accessors":[
		{
			"bufferView":0,
			"componentType":5126,
			"count":686877,
			"max":[
				62.50000762939453,
				329.7738342285156,
				62.724491119384766
			],
			"min":[
				-62.4999885559082,
				-0.22615750133991241,
				-62.275508880615234
			],
			"type":"VEC3"
		},
		{
			"bufferView":1,
			"componentType":5126,
			"count":686877,
			"type":"VEC3"
		},
		{
			"bufferView":2,
			"componentType":5126,
			"count":686877,
			"type":"VEC2"
		},
		{
			"bufferView":3,
			"componentType":5126,
			"count":686877,
			"type":"VEC2"
		},
		{
			"bufferView":4,
			"componentType":5125,
			"count":1544979,
			"type":"SCALAR"
		}
	],
	"bufferViews":[
		{
			"buffer":0,
			"byteLength":8242524,
			"byteOffset":0,
			"target":34962
		},
		{
			"buffer":0,
			"byteLength":8242524,
			"byteOffset":8242524,
			"target":34962
		},
		{
			"buffer":0,
			"byteLength":5495016,
			"byteOffset":16485048,
			"target":34962
		},
		{
			"buffer":0,
			"byteLength":5495016,
			"byteOffset":21980064,
			"target":34962
		},
		{
			"buffer":0,
			"byteLength":6179916,
			"byteOffset":27475080,
			"target":34963
		}
	],
	"samplers":[
		{
			"magFilter":9729,
			"minFilter":9987
		}
	],
	"buffers":[
		{
			"byteLength":33654996,
			"uri":"EiffelTower.bin"
		}
	]
}
