{
	"asset":{
		"generator":"Khronos glTF Blender I/O v3.6.27",
		"version":"2.0"
	},
	"extensionsUsed":[
		"KHR_texture_transform"
	],
	"extensionsRequired":[
		"KHR_texture_transform"
	],
	"scene":0,
	"scenes":[
		{
			"name":"Scene",
			"nodes":[
				0,
				1,
				2,
				3,
				4
			]
		}
	],
	"nodes":[
		{
			"mesh":0,
			"name":"Eiffeltower base",
			"scale":[
				370,
				1,
				230
			],
			"translation":[
				614.9999389648438,
				0,
				-229.75
			]
		},
		{
			"mesh":1,
			"name":"Houses base",
			"scale":[
				370,
				1,
				230
			],
			"translation":[
				370,
				0,
				-230
			]
		},
		{
			"mesh":2,
			"name":"Walk path",
			"scale":[
				370,
				1,
				230
			],
			"translation":[
				370,
				0,
				-230
			]
		},
		{
			"mesh":3,
			"name":"Sidewalk",
			"translation":[
				370,
				0,
				-230
			]
		},
		{
			"mesh":4,
			"name":"Street",
			"translation":[
				370,
				0,
				-230
			]
		}
	],
	"materials":[
		{
			"doubleSided":true,
			"name":"Concrete Bare",
			"normalTexture":{
				"index":0,
				"texCoord":1
			},
			"pbrMetallicRoughness":{
				"baseColorTexture":{
					"index":1,
					"texCoord":1
				},
				"metallicFactor":0,
				"metallicRoughnessTexture":{
					"index":2,
					"texCoord":1
				}
			}
		},
		{
			"doubleSided":true,
			"name":"Gray concrete with dots",
			"normalTexture":{
				"extensions":{
					"KHR_texture_transform":{
						"offset":[
							1,
							0
						]
					}
				},
				"index":3,
				"scale":0.029999999329447746,
				"texCoord":1
			},
			"pbrMetallicRoughness":{
				"baseColorTexture":{
					"extensions":{
						"KHR_texture_transform":{
							"offset":[
								1,
								0
							]
						}
					},
					"index":4,
					"texCoord":1
				},
				"metallicFactor":0,
				"metallicRoughnessTexture":{
					"extensions":{
						"KHR_texture_transform":{
							"offset":[
								1,
								0
							]
						}
					},
					"index":5,
					"texCoord":1
				}
			}
		},
		{
			"doubleSided":true,
			"name":"Grass path",
			"normalTexture":{
				"index":6,
				"texCoord":1
			},
			"pbrMetallicRoughness":{
				"baseColorTexture":{
					"index":7,
					"texCoord":1
				},
				"metallicFactor":0,
				"metallicRoughnessTexture":{
					"index":8,
					"texCoord":1
				}
			}
		},
		{
			"doubleSided":true,
			"name":"Concrete Sidewalk",
			"normalTexture":{
				"index":9,
				"texCoord":1
			},
			"pbrMetallicRoughness":{
				"baseColorTexture":{
					"index":10,
					"texCoord":1
				},
				"metallicFactor":0,
				"metallicRoughnessTexture":{
					"index":11,
					"texCoord":1
				}
			}
		},
		{
			"doubleSided":true,
			"name":"Asphalt",
			"normalTexture":{
				"index":12,
				"texCoord":1
			},
			"pbrMetallicRoughness":{
				"baseColorTexture":{
					"index":13,
					"texCoord":1
				},
				"metallicRoughnessTexture":{
					"index":14,
					"texCoord":1
				}
			}
		}
	],
	"meshes":[
		{
			"name":"Plane.006",
			"primitives":[
				{
					"attributes":{
						"POSITION":0,
						"NORMAL":1,
						"TEXCOORD_0":2,
						"TEXCOORD_1":3
					},
					"indices":4,
					"material":0
				}
			]
		},
		{
			"name":"Plane",
			"primitives":[
				{
					"attributes":{
						"POSITION":5,
						"NORMAL":6,
						"TEXCOORD_0":7,
						"TEXCOORD_1":8
					},
					"indices":9,
					"material":1
				}
			]
		},
		{
			"name":"Plane.005",
			"primitives":[
				{
					"attributes":{
						"POSITION":10,
						"NORMAL":11,
						"TEXCOORD_0":12,
						"TEXCOORD_1":13
					},
					"indices":14,
					"material":2
				}
			]
		},
		{
			"name":"Plane.003",
			"primitives":[
				{
					"attributes":{
						"POSITION":15,
						"NORMAL":16,
						"TEXCOORD_0":17,
						"TEXCOORD_1":18
					},
					"indices":19,
					"material":3
				}
			]
		},
		{
			"name":"Plane.001",
			"primitives":[
				{
					"attributes":{
						"POSITION":20,
						"NORMAL":21,
						"TEXCOORD_0":22,
						"TEXCOORD_1":23
					},
					"indices":24,
					"material":4
				}
			]
		}
	],
	"textures":[
		{
			"sampler":0,
			"source":0
		},
		{
			"sampler":0,
			"source":1
		},
		{
			"sampler":0,
			"source":2
		},
		{
			"sampler":0,
			"source":3
		},
		{
			"sampler":0,
			"source":4
		},
		{
			"sampler":0,
			"source":5
		},
		{
			"sampler":0,
			"source":6
		},
		{
			"sampler":0,
			"source":7
		},
		{
			"sampler":0,
			"source":8
		},
		{
			"sampler":0,
			"source":9
		},
		{
			"sampler":0,
			"source":10
		},
		{
			"sampler":0,
			"source":11
		},
		{
			"sampler":0,
			"source":12
		},
		{
			"sampler":0,
			"source":13
		},
		{
			"sampler":0,
			"source":14
		}
	],
	"images":[
		{
			"mimeType":"image/jpeg",
			"name":"Concrete Bare_Normal",
			"uri":"textures/Concrete%20Bare_Normal.jpg"
		},
		{
			"mimeType":"image/jpeg",
			"name":"Concrete Bare_BaseColor",
			"uri":"textures/Concrete%20Bare_BaseColor.jpg"
		},
		{
			"mimeType":"image/png",
			"name":"Concrete Bare_Roughness",
			"uri":"textures/Concrete%20Bare_Roughness.png"
		},
		{
			"mimeType":"image/jpeg",
			"name":"tiled_plane_DefaultMaterial_Normal",
			"uri":"textures/tiled_plane_DefaultMaterial_Normal.jpg"
		},
		{
			"mimeType":"image/jpeg",
			"name":"tiled_plane_DefaultMaterial_BaseColor",
			"uri":"textures/tiled_plane_DefaultMaterial_BaseColor.jpg"
		},
		{
			"mimeType":"image/png",
			"name":"tiled_plane_DefaultMaterial_Roughness",
			"uri":"textures/tiled_plane_DefaultMaterial_Roughness.png"
		},
		{
			"mimeType":"image/png",
			"name":"grass_path_3_nor_4k",
			"uri":"textures/grass_path_3_nor_4k.png"
		},
		{
			"mimeType":"image/jpeg",
			"name":"grass_path_3_diff_8k",
			"uri":"textures/grass_path_3_diff_8k.jpg"
		},
		{
			"mimeType":"image/png",
			"name":"grass_path_3_rough_8k",
			"uri":"textures/grass_path_3_rough_8k.png"
		},
		{
			"mimeType":"image/png",
			"name":"ConcreteSidewalk001a_Normals",
			"uri":"textures/ConcreteSidewalk001a_Normals.png"
		},
		{
			"mimeType":"image/png",
			"name":"ConcreteSidewalk001a_Color",
			"uri":"textures/ConcreteSidewalk001a_Color.png"
		},
		{
			"mimeType":"image/png",
			"name":"ConcreteSidewalk001a_Roughness",
			"uri":"textures/ConcreteSidewalk001a_Roughness.png"
		},
		{
			"mimeType":"image/jpeg",
			"name":"Asphalt_Normal",
			"uri":"textures/Asphalt_Normal.jpg"
		},
		{
			"mimeType":"image/png",
			"name":"Asphalt_Base Color",
			"uri":"textures/Asphalt_Base%20Color.png"
		},
		{
			"mimeType":"image/png",
			"name":"Asphalt_Metallic-Asphalt_Roughness",
			"uri":"textures/Asphalt_Metallic-Asphalt_Roughness.png"
		}
	],
	"accessors":[
		{
			"bufferView":0,
			"componentType":5126,
			"count":4,
			"max":[
				0.22972995042800903,
				0,
				0.3815217912197113
			],
			"min":[
				-0.22972968220710754,
				0,
				-0.38152173161506653
			],
			"type":"VEC3"
		},
		{
			"bufferView":1,
			"componentType":5126,
			"count":4,
			"type":"VEC3"
		},
		{
			"bufferView":2,
			"componentType":5126,
			"count":4,
			"type":"VEC2"
		},
		{
			"bufferView":3,
			"componentType":5126,
			"count":4,
			"type":"VEC2"
		},
		{
			"bufferView":4,
			"componentType":5123,
			"count":6,
			"type":"SCALAR"
		},
		{
			"bufferView":5,
			"componentType":5126,
			"count":40,
			"max":[
				0.8918919563293457,
				0,
				0.9130435585975647
			],
			"min":[
				-0.8918918371200562,
				0,
				-0.9130433797836304
			],
			"type":"VEC3"
		},
		{
			"bufferView":6,
			"componentType":5126,
			"count":40,
			"type":"VEC3"
		},
		{
			"bufferView":7,
			"componentType":5126,
			"count":40,
			"type":"VEC2"
		},
		{
			"bufferView":8,
			"componentType":5126,
			"count":40,
			"type":"VEC2"
		},
		{
			"bufferView":9,
			"componentType":5123,
			"count":60,
			"type":"SCALAR"
		},
		{
			"bufferView":10,
			"componentType":5126,
			"count":16,
			"max":[
				0.32432428002357483,
				0,
				0.08695653080940247
			],
			"min":[
				-0.8918917775154114,
				0,
				-0.08695662021636963
			],
			"type":"VEC3"
		},
		{
			"bufferView":11,
			"componentType":5126,
			"count":16,
			"type":"VEC3"
		},
		{
			"bufferView":12,
			"componentType":5126,
			"count":16,
			"type":"VEC2"
		},
		{
			"bufferView":13,
			"componentType":5126,
			"count":16,
			"type":"VEC2"
		},
		{
			"bufferView":14,
			"componentType":5123,
			"count":24,
			"type":"SCALAR"
		},
		{
			"bufferView":15,
			"componentType":5126,
			"count":1248,
			"max":[
				370,
				0.15000000596046448,
				230
			],
			"min":[
				-370,
				0,
				-229.99998474121094
			],
			"type":"VEC3"
		},
		{
			"bufferView":16,
			"componentType":5126,
			"count":1248,
			"type":"VEC3"
		},
		{
			"bufferView":17,
			"componentType":5126,
			"count":1248,
			"type":"VEC2"
		},
		{
			"bufferView":18,
			"componentType":5126,
			"count":1248,
			"type":"VEC2"
		},
		{
			"bufferView":19,
			"componentType":5123,
			"count":3072,
			"type":"SCALAR"
		},
		{
			"bufferView":20,
			"componentType":5126,
			"count":128,
			"max":[
				367,
				0,
				227
			],
			"min":[
				-367,
				0,
				-226.99998474121094
			],
			"type":"VEC3"
		},
		{
			"bufferView":21,
			"componentType":5126,
			"count":128,
			"type":"VEC3"
		},
		{
			"bufferView":22,
			"componentType":5126,
			"count":128,
			"type":"VEC2"
		},
		{
			"bufferView":23,
			"componentType":5126,
			"count":128,
			"type":"VEC2"
		},
		{
			"bufferView":24,
			"componentType":5123,
			"count":456,
			"type":"SCALAR"
		}
	],
	"bufferViews":[
		{
			"buffer":0,
			"byteLength":48,
			"byteOffset":0,
			"target":34962
		},
		{
			"buffer":0,
			"byteLength":48,
			"byteOffset":48,
			"target":34962
		},
		{
			"buffer":0,
			"byteLength":32,
			"byteOffset":96,
			"target":34962
		},
		{
			"buffer":0,
			"byteLength":32,
			"byteOffset":128,
			"target":34962
		},
		{
			"buffer":0,
			"byteLength":12,
			"byteOffset":160,
			"target":34963
		},
		{
			"buffer":0,
			"byteLength":480,
			"byteOffset":172,
			"target":34962
		},
		{
			"buffer":0,
			"byteLength":480,
			"byteOffset":652,
			"target":34962
		},
		{
			"buffer":0,
			"byteLength":320,
			"byteOffset":1132,
			"target":34962
		},
		{
			"buffer":0,
			"byteLength":320,
			"byteOffset":1452,
			"target":34962
		},
		{
			"buffer":0,
			"byteLength":120,
			"byteOffset":1772,
			"target":34963
		},
		{
			"buffer":0,
			"byteLength":192,
			"byteOffset":1892,
			"target":34962
		},
		{
			"buffer":0,
			"byteLength":192,
			"byteOffset":2084,
			"target":34962
		},
		{
			"buffer":0,
			"byteLength":128,
			"byteOffset":2276,
			"target":34962
		},
		{
			"buffer":0,
			"byteLength":128,
			"byteOffset":2404,
			"target":34962
		},
		{
			"buffer":0,
			"byteLength":48,
			"byteOffset":2532,
			"target":34963
		},
		{
			"buffer":0,
			"byteLength":14976,
			"byteOffset":2580,
			"target":34962
		},
		{
			"buffer":0,
			"byteLength":14976,
			"byteOffset":17556,
			"target":34962
		},
		{
			"buffer":0,
			"byteLength":9984,
			"byteOffset":32532,
			"target":34962
		},
		{
			"buffer":0,
			"byteLength":9984,
			"byteOffset":42516,
			"target":34962
		},
		{
			"buffer":0,
			"byteLength":6144,
			"byteOffset":52500,
			"target":34963
		},
		{
			"buffer":0,
			"byteLength":1536,
			"byteOffset":58644,
			"target":34962
		},
		{
			"buffer":0,
			"byteLength":1536,
			"byteOffset":60180,
			"target":34962
		},
		{
			"buffer":0,
			"byteLength":1024,
			"byteOffset":61716,
			"target":34962
		},
		{
			"buffer":0,
			"byteLength":1024,
			"byteOffset":62740,
			"target":34962
		},
		{
			"buffer":0,
			"byteLength":912,
			"byteOffset":63764,
			"target":34963
		}
	],
	"samplers":[
		{
			"magFilter":9729,
			"minFilter":9987
		}
	],
	"buffers":[
		{
			"byteLength":64676,
			"uri":"World.bin"
		}
	]
}
